{"title":"It's a Wonderful Life(1946)MP-4[DaScubaDude]","uid":12965103,"size":1311521242,"categoryP":"video","categoryS":"movies","magnet":"?xt=urn:btih:6336e5b7e6ad383bf75ab59884f96abd54821a87&amp;dn=It%27s+a+Wonderful+Life%281946%29MP-4%5BDaScubaDude%5D&amp;tr=udp%3A%2F%2Ftracker.leechers-paradise.org%3A6969&amp;tr=udp%3A%2F%2Fzer0day.ch%3A1337&amp;tr=udp%3A%2F%2Fopen.demonii.com%3A1337&amp;tr=udp%3A%2F%2Ftracker.coppersurfer.tk%3A6969&amp;tr=udp%3A%2F%2Fexodus.desync.com%3A6969","seeders":0,"leechers":1,"uploader":"dascuba","files":1,"time":1449881885,"description":"An angel helps a compassionate but despairingly frustrated businessman by showing what life would have been like if he never existed.\r\nDirector: Frank Capra\r\nWriters: Frances Goodrich (screenplay), Albert Hackett (screenplay) | 3 more credits »\r\nStars: James Stewart, Donna Reed, Lionel Barrymore \r\n\r\nGeneral\r\nComplete name                            : It's a Wonderful LifeIt's a Wonderful Life.mp4\r\nFormat                                   : MPEG-4\r\nFormat profile                           : Base Media\r\nCodec ID                                 : isom\r\nFile size                                : 1.22 GiB\r\nDuration                                 : 2h 10mn\r\nOverall bit rate mode                    : Variable\r\nOverall bit rate                         : 1 341 Kbps\r\nMovie name                               : UNDEFINED\r\nGenre                                    : Comedy_Drama\r\nWriting application                      : Lavf54.6.100\r\n\r\nVideo\r\nID                                       : 1\r\nFormat                                   : AVC\r\nFormat/Info                              : Advanced Video Codec\r\nFormat profile                           :   \r\nFormat settings, CABAC                   : No\r\nFormat settings, ReFrames                : 6 frames\r\nCodec ID                                 : avc1\r\nCodec ID/Info                            : Advanced Video Coding\r\nDuration                                 : 2h 10mn\r\nBit rate                                 : 1 206 Kbps\r\nWidth                                    : 720 pixels\r\nHeight                                   : 540 pixels\r\nDisplay aspect ratio                     : 4:3\r\nFrame rate mode                          : Constant\r\nFrame rate                               : 29.970 fps\r\nColor space                              : YUV\r\nChroma subsampling                       : 4:2:0\r\nBit depth                                : 8 bits\r\nScan type                                : Progressive\r\nBits/(Pixel*Frame)                       : 0.104\r\nStream size                              : 1.10 GiB (90%)\r\n\r\nAudio\r\nID                                       : 2\r\nFormat                                   : AAC\r\nFormat/Info                              : Advanced Audio Codec\r\nFormat profile                           : LC\r\nCodec ID                                 : 40\r\nDuration                                 : 2h 10mn\r\nBit rate mode                            : Variable\r\nBit rate                                 : 128 Kbps\r\nMaximum bit rate                         : 148 Kbps\r\nChannel(s)                               : 2 channels\r\nChannel positions                        : Front: L R\r\nSampling rate                            : 44.1 KHz\r\nCompression mode                         : Lossy\r\nStream size                              : 119 MiB (10%)","torrent":{"xt":"urn:btih:6336e5b7e6ad383bf75ab59884f96abd54821a87","amp;dn":"It%27s+a+Wonderful+Life%281946%29MP-4%5BDaScubaDude%5D","amp;tr":["udp%3A%2F%2Ftracker.leechers-paradise.org%3A6969","udp%3A%2F%2Fzer0day.ch%3A1337","udp%3A%2F%2Fopen.demonii.com%3A1337","udp%3A%2F%2Ftracker.coppersurfer.tk%3A6969","udp%3A%2F%2Fexodus.desync.com%3A6969"],"infoHash":"6336e5b7e6ad383bf75ab59884f96abd54821a87","infoHashBuffer":{"type":"Buffer","data":[99,54,229,183,230,173,56,59,247,90,181,152,132,249,106,189,84,130,26,135]},"announce":[],"urlList":[]}}